HIERARCHY
ROOT joint_0
{
	OFFSET 0.000000 0.000000 0.000000
	CHANNELS 6 Xposition Yposition Zposition Zrotation Yrotation Xrotation 
	JOINT joint_1
	{
		OFFSET 17.107422 0.519409 105.452026
		CHANNELS 3 Zrotation Yrotation Xrotation
		JOINT joint_2
		{
			OFFSET 6.110352 -1.434082 97.381958
			CHANNELS 3 Zrotation Yrotation Xrotation
			JOINT joint_3
			{
				OFFSET 6.305908 -1.739990 97.255005
				CHANNELS 3 Zrotation Yrotation Xrotation
				JOINT joint_4
				{
					OFFSET 22.074707 -0.492493 131.077026
					CHANNELS 3 Zrotation Yrotation Xrotation
					JOINT joint_5
					{
						OFFSET 34.162842 2.248718 78.700928
						CHANNELS 3 Zrotation Yrotation Xrotation
						End Site
						{
							OFFSET 0.000000 0.000000 0.000000
						}
					}
				}
				JOINT joint_6
				{
					OFFSET 17.059082 -28.836914 72.664062
					CHANNELS 3 Zrotation Yrotation Xrotation
					JOINT joint_7
					{
						OFFSET 22.639893 -134.803833 -24.691040
						CHANNELS 3 Zrotation Yrotation Xrotation
						JOINT joint_8
						{
							OFFSET 7.301758 -32.590759 -269.966064
							CHANNELS 3 Zrotation Yrotation Xrotation
							JOINT joint_9
							{
								OFFSET 35.581055 -8.517151 -242.326965
								CHANNELS 3 Zrotation Yrotation Xrotation
								End Site
								{
									OFFSET 0.000000 0.000000 0.000000
								}
							}
						}
					}
				}
				JOINT joint_10
				{
					OFFSET 7.819092 28.232056 74.432983
					CHANNELS 3 Zrotation Yrotation Xrotation
					JOINT joint_11
					{
						OFFSET -23.457031 135.063843 -22.406982
						CHANNELS 3 Zrotation Yrotation Xrotation
						JOINT joint_12
						{
							OFFSET 17.896973 48.138672 -267.131958
							CHANNELS 3 Zrotation Yrotation Xrotation
							JOINT joint_13
							{
								OFFSET 46.526367 17.567627 -239.975037
								CHANNELS 3 Zrotation Yrotation Xrotation
								End Site
								{
									OFFSET 0.000000 0.000000 0.000000
								}
							}
						}
					}
				}
			}
		}
	}
	JOINT joint_14
	{
		OFFSET 10.553467 -100.140320 -126.306030
		CHANNELS 3 Zrotation Yrotation Xrotation
		JOINT joint_15
		{
			OFFSET -52.094238 -9.565002 -436.052002
			CHANNELS 3 Zrotation Yrotation Xrotation
			JOINT joint_16
			{
				OFFSET -55.682617 -11.310120 -462.482971
				CHANNELS 3 Zrotation Yrotation Xrotation
				JOINT joint_17
				{
					OFFSET 179.119385 -5.942566 -84.087004
					CHANNELS 3 Zrotation Yrotation Xrotation
					End Site
					{
						OFFSET 0.000000 0.000000 0.000000
					}
				}
			}
		}
	}
	JOINT joint_18
	{
		OFFSET -22.235352 101.620483 -123.583984
		CHANNELS 3 Zrotation Yrotation Xrotation
		JOINT joint_19
		{
			OFFSET -38.118408 12.306396 -437.429016
			CHANNELS 3 Zrotation Yrotation Xrotation
			JOINT joint_20
			{
				OFFSET -51.789307 8.010498 -463.006004
				CHANNELS 3 Zrotation Yrotation Xrotation
				JOINT joint_21
				{
					OFFSET 170.088135 59.632324 -83.078003
					CHANNELS 3 Zrotation Yrotation Xrotation
					End Site
					{
						OFFSET 0.000000 0.000000 0.000000
					}
				}
			}
		}
	}
}
MOTION
Frames: 9
Frame Time: 0.016667
-3370.610107 933.292603 1127.358032 -0.743046 -1.179423 -0.330495 0.096619 0.689202 -0.209989 0.069115 -0.165239 0.030713 0.077993 0.184075 -0.009529 -0.022552 -0.707536 0.098707 0.000000 0.000000 0.000000 -0.600101 1.222035 0.517640 -0.106177 1.147577 0.613041 0.015634 0.008918 0.108430 0.000000 0.000000 0.000000 0.069304 1.154108 1.080915 0.032802 0.686806 -1.576309 0.052423 0.125293 0.222813 0.000000 0.000000 0.000000 0.385477 0.329974 -0.130094 0.406161 1.189076 -0.460587 0.353378 0.225533 0.173317 0.000000 0.000000 0.000000 0.553973 0.440203 -0.316641 0.571161 1.378097 -0.209900 0.463699 -0.618579 0.443247 0.000000 0.000000 0.000000 
-3369.342529 933.887756 1127.359985 -0.847652 -1.146994 -0.345897 0.089622 0.877559 -0.163564 0.063011 -0.199707 0.011791 0.071273 0.219802 0.000594 -0.017444 -0.828677 0.094987 0.000000 0.000000 0.000000 -0.632862 1.220798 0.489994 -0.102162 1.136020 0.563812 0.018143 0.020584 0.128244 0.000000 0.000000 0.000000 0.047794 1.202249 1.057256 0.036441 0.738206 -1.605804 0.060380 0.181084 0.242630 0.000000 0.000000 0.000000 0.479282 0.387102 -0.225878 0.478416 1.148709 -0.357876 0.435082 0.132028 0.208560 0.000000 0.000000 0.000000 0.661316 0.431078 -0.372572 0.674894 1.491661 -0.184481 0.559058 -0.691581 0.515381 0.000000 0.000000 0.000000 
-3367.806396 934.614563 1127.366943 -0.963728 -1.145705 -0.352807 0.081118 1.112510 -0.117707 0.054846 -0.243183 -0.011342 0.062515 0.264913 0.011301 -0.014215 -0.928509 0.094192 0.000000 0.000000 0.000000 -0.678192 1.216374 0.479655 -0.096998 1.108539 0.471013 0.021734 0.027930 0.154357 0.000000 0.000000 0.000000 0.025368 1.251738 1.003713 0.044193 0.802109 -1.605647 0.063769 0.218079 0.245974 0.000000 0.000000 0.000000 0.595780 0.522023 -0.355280 0.569792 1.066519 -0.236681 0.537207 -0.005331 0.251930 0.000000 0.000000 0.000000 0.771113 0.454092 -0.462312 0.776008 1.646695 -0.131412 0.652956 -0.788109 0.595031 0.000000 0.000000 0.000000 
-3366.158203 935.435364 1127.302979 -1.083780 -1.159516 -0.367792 0.077757 1.411093 -0.070160 0.050781 -0.299237 -0.033327 0.058360 0.322012 0.022361 -0.009884 -1.009563 0.089603 0.000000 0.000000 0.000000 -0.736664 1.193502 0.445368 -0.088618 1.063975 0.380188 0.029476 0.015468 0.203861 0.000000 0.000000 0.000000 -0.011523 1.281976 0.950642 0.048049 0.848629 -1.604328 0.064022 0.247158 0.236132 0.000000 0.000000 0.000000 0.708667 0.682607 -0.476157 0.661005 0.979837 -0.129964 0.637739 -0.154799 0.294145 0.000000 0.000000 0.000000 0.865452 0.444765 -0.534775 0.869411 1.915769 -0.102668 0.730360 -0.974000 0.697927 0.000000 0.000000 0.000000 
-3364.504395 936.336426 1127.104004 -1.201731 -1.190713 -0.403130 0.080664 1.795341 -0.008720 0.052514 -0.370343 -0.055960 0.060444 0.389024 0.033254 -0.001882 -1.071321 0.075256 0.000000 0.000000 0.000000 -0.797728 1.141541 0.350586 -0.076033 1.005726 0.327963 0.043803 -0.030010 0.289972 0.000000 0.000000 0.000000 -0.068395 1.281477 0.919180 0.043033 0.858823 -1.624240 0.062144 0.273544 0.216337 0.000000 0.000000 0.000000 0.798157 0.853701 -0.562636 0.736920 0.903400 -0.056043 0.719984 -0.293285 0.328131 0.000000 0.000000 0.000000 0.924646 0.367619 -0.548530 0.945743 2.362478 -0.143542 0.773357 -1.308966 0.836247 0.000000 0.000000 0.000000 
-3362.786621 937.329346 1126.798950 -1.321228 -1.246031 -0.453203 0.087938 2.258705 0.065682 0.058453 -0.452953 -0.081141 0.066890 0.463708 0.045212 0.008758 -1.115174 0.053630 0.000000 0.000000 0.000000 -0.863172 1.065727 0.209252 -0.059953 0.933847 0.298507 0.063516 -0.101947 0.405927 0.000000 0.000000 0.000000 -0.141878 1.258321 0.899953 0.031921 0.843663 -1.657505 0.057723 0.293989 0.185701 0.000000 0.000000 0.000000 0.874306 1.054751 -0.629623 0.805113 0.824385 -0.002694 0.792519 -0.431967 0.357540 0.000000 0.000000 0.000000 0.955677 0.248332 -0.521416 1.007288 2.957886 -0.235727 0.788084 -1.762986 1.002457 0.000000 0.000000 0.000000 
-3360.988281 938.379761 1126.448975 -1.440559 -1.273310 -0.516312 0.108648 2.770637 0.119759 0.075019 -0.558271 -0.094231 0.085995 0.556694 0.050335 0.015906 -1.151085 0.039473 0.000000 0.000000 0.000000 -0.974265 0.971746 0.068791 -0.039505 0.833876 0.264978 0.087038 -0.189869 0.543318 0.000000 0.000000 0.000000 -0.227318 1.209225 0.903729 0.013894 0.799241 -1.691800 0.048901 0.306609 0.135439 0.000000 0.000000 0.000000 0.946511 1.212067 -0.665719 0.875437 0.777512 0.017791 0.864385 -0.582216 0.386235 0.000000 0.000000 0.000000 0.987232 0.058731 -0.483435 1.074667 3.637052 -0.329464 0.804554 -2.259727 1.184440 0.000000 0.000000 0.000000 
-3359.173340 939.467957 1126.078979 -1.566299 -1.231408 -0.589114 0.152374 3.327713 0.121515 0.109054 -0.699688 -0.081950 0.126502 0.681558 0.040904 0.012941 -1.182428 0.048187 0.000000 0.000000 0.000000 -1.163119 0.852594 -0.039545 -0.012245 0.684677 0.211988 0.114913 -0.293379 0.705610 0.000000 0.000000 0.000000 -0.319783 1.118777 0.944778 -0.014694 0.707690 -1.718988 0.034635 0.313547 0.059443 0.000000 0.000000 0.000000 1.024671 1.275907 -0.661198 0.959932 0.764954 -0.012311 0.945035 -0.745401 0.418607 0.000000 0.000000 0.000000 1.044907 -0.261923 -0.461261 1.169726 4.415147 -0.386196 0.849280 -2.767371 1.383923 0.000000 0.000000 0.000000 
-3357.348877 940.607605 1125.666016 -1.698652 -1.140435 -0.674058 0.213842 3.942370 0.085469 0.156930 -0.870199 -0.049778 0.183972 0.827200 0.020249 0.004195 -1.204328 0.069441 0.000000 0.000000 0.000000 -1.410737 0.707412 -0.136767 0.021185 0.494703 0.152439 0.148090 -0.418117 0.897420 0.000000 0.000000 0.000000 -0.415155 0.990701 1.022399 -0.053850 0.570655 -1.747987 0.015770 0.316683 -0.038600 0.000000 0.000000 0.000000 1.104792 1.275091 -0.618549 1.054725 0.772457 -0.088505 1.030835 -0.916388 0.453112 0.000000 0.000000 0.000000 1.117693 -0.703051 -0.441181 1.284359 5.316641 -0.424304 0.911220 -3.307712 1.603095 0.000000 0.000000 0.000000 
